<?xml version="1.0" standalone="no"?>
<!DOCTYPE svg PUBLIC "-//W3C//DTD SVG 20010904//EN"
 "http://www.w3.org/TR/2001/REC-SVG-20010904/DTD/svg10.dtd">
<svg version="1.0" xmlns="http://www.w3.org/2000/svg"
 width="260.000000pt" height="260.000000pt" viewBox="0 0 260.000000 260.000000"
 preserveAspectRatio="xMidYMid meet">
<metadata>
Created by potrace 1.11, written by Peter Selinger 2001-2013
</metadata>
<g transform="translate(0.000000,260.000000) scale(0.100000,-0.100000)"
fill="#000000" stroke="none">
<path d="M515 2316 c-41 -18 -83 -69 -90 -109 -3 -18 -4 -431 -3 -919 3 -878
3 -887 24 -914 33 -45 70 -67 121 -71 61 -6 128 27 157 77 20 34 20 52 21 683
0 424 3 647 10 647 6 -1 24 -18 40 -39 31 -40 335 -402 345 -411 3 -3 39 -45
80 -95 41 -49 85 -101 97 -115 12 -14 87 -104 168 -200 81 -96 169 -200 195
-230 26 -30 89 -104 140 -164 118 -141 128 -149 200 -152 65 -3 105 16 144 69
21 28 21 33 24 928 3 993 6 942 -62 994 -74 56 -183 39 -234 -38 l-27 -40 -1
-651 c-1 -358 -2 -653 -3 -654 0 -2 -25 24 -53 59 -29 34 -107 126 -173 204
-66 78 -140 166 -165 195 -91 109 -215 255 -225 266 -5 6 -26 30 -45 54 -19
24 -40 48 -45 54 -6 6 -33 38 -60 71 -28 33 -62 74 -76 90 -15 17 -93 109
-174 205 -81 96 -163 185 -183 197 -42 26 -101 29 -147 9z"/>
</g>
</svg>
